<?xml version="1.0" encoding="utf-8"?>
<!-- Generator: Adobe Illustrator 24.2.0, SVG Export Plug-In . SVG Version: 6.00 Build 0)  -->
<svg version="1.1" id="Laag_1" xmlns="http://www.w3.org/2000/svg" xmlns:xlink="http://www.w3.org/1999/xlink" x="0px" y="0px"
	 viewBox="0 0 240.5 212.4" style="enable-background:new 0 0 240.5 212.4;" xml:space="preserve">
<style type="text/css">
	.st0{fill:#F9F7F7;}
	.st1{clip-path:url(#SVGID_2_);fill:#21468B;}
	.st2{clip-path:url(#SVGID_2_);fill:#FFFFFF;}
	.st3{clip-path:url(#SVGID_2_);fill:#AE1C28;}
	.st4{fill:#FFFFFF;}
</style>
<path id="Path_15-2" class="st0" d="M205,7.7c10.9,6.1,20.6,14.1,26.6,25.4c0,0,0,0,0,0.4c6.1,11.3,8.9,23.8,8.9,36.3
	c0,42.8-34.3,71.8-85.9,116.2c-5.6,4.8-12.1,10.1-18.6,15.7l-10.9,8.9c-2.8,2.4-6.9,2.4-10.1,0c-10.5-9.3-20.2-17.8-29-25
	C34.3,141.2,0,111.8,0,69.4C0,29.9,27.4,0,63.7,0c12.9,0,25.4,4.4,35.5,12.1c3.6,2.8,7.3,6.5,10.5,10.1l10.1,12.5l12.1-14.1
	c2.8-2.8,6.1-5.6,9.3-8.5C151.3,4.1,163.8-0.4,176.7,0l0,0c9.7,0,19,2.4,27,6.9C204.1,7.3,204.5,7.3,205,7.7z"/>
<g>
	<g>
		<defs>
			<path id="SVGID_1_" d="M204.5,15.8c5.2,2.8,10.5,6.9,14.1,11.3c2.4,3.2,4.8,6.5,6.5,9.7c5.6,10.5,8.5,22.2,8.5,34.3
				c0,40.3-32.3,67.8-81.5,109.7c-5.2,4.4-11.3,9.7-17.3,14.9l-9.7,9.3c-2.8,2.4-6.9,2.4-9.3,0c-9.7-8.5-19.4-16.5-27.4-23.8
				c-49.6-42-81.9-69.4-81.9-109.7C6.5,33.9,32.3,6.1,67,6.1c12.1,0,24.2,4,33.5,11.7c3.6,2.8,6.9,6.1,10.1,9.3l9.7,11.7l11.3-13.3
				c2.4-2.8,5.2-5.6,8.5-7.7c9.3-8.1,21.4-12.1,33.5-12.1c1.2,0,2.4,0,3.6,0c7.3,0.4,14.5,2.8,21,6.5L204.5,15.8z"/>
		</defs>
		<clipPath id="SVGID_2_">
			<use xlink:href="#SVGID_1_"  style="overflow:visible;"/>
		</clipPath>
		<rect x="-83.2" y="-21.2" class="st1" width="389.9" height="260"/>
		<rect x="-83.2" y="-21.2" class="st2" width="389.9" height="173.3"/>
		<rect x="-83.2" y="-21.2" class="st3" width="389.9" height="86.7"/>
	</g>
</g>
<path id="Polygon_7" class="st4" d="M132.7,207.4c-6.5,6.5-16.5,6.5-23,0l0,0L88.4,186c-6.5-6.5-6.5-16.5,0-23
	c3.2-3.2,7.3-4.8,11.3-4.8h43.2c8.9,0,16.1,7.3,16.1,16.1c0,4.4-1.6,8.5-4.8,11.3L132.7,207.4z"/>
</svg>
