<?xml version="1.0" encoding="utf-8"?>
<!-- Generator: Adobe Illustrator 24.2.0, SVG Export Plug-In . SVG Version: 6.00 Build 0)  -->
<svg version="1.1" id="Laag_1" xmlns="http://www.w3.org/2000/svg" xmlns:xlink="http://www.w3.org/1999/xlink" x="0px" y="0px"
	 viewBox="0 0 59.6 52.6" style="enable-background:new 0 0 59.6 52.6;" xml:space="preserve">
<style type="text/css">
	.st0{fill:#F9F7F7;}
	.st1{clip-path:url(#SVGID_2_);fill:#FFFFFF;}
	.st2{clip-path:url(#SVGID_2_);fill:#D52B1E;}
	.st3{clip-path:url(#SVGID_2_);fill:#0039A6;}
	.st4{fill:#FFFFFF;}
</style>
<path id="Path_15-2" class="st0" d="M50.8,1.9c2.7,1.5,5.1,3.5,6.6,6.3c0,0,0,0,0,0.1c1.5,2.8,2.2,5.9,2.2,9
	c0,10.6-8.5,17.8-21.3,28.8c-1.4,1.2-3,2.5-4.6,3.9L31,52.2c-0.7,0.6-1.7,0.6-2.5,0c-2.6-2.3-5-4.4-7.2-6.2C8.5,35,0,27.7,0,17.2
	C0,7.4,6.8,0,15.8,0c3.2,0,6.3,1.1,8.8,3c0.9,0.7,1.8,1.6,2.6,2.5l2.5,3.1l3-3.5C33.4,4.4,34.2,3.7,35,3c2.5-2,5.6-3.1,8.8-3
	c0,0,0,0,0,0c2.4,0,4.7,0.6,6.7,1.7C50.6,1.8,50.7,1.8,50.8,1.9z"/>
<g>
	<defs>
		<path id="SVGID_1_" d="M50.7,3.9c1.3,0.7,2.6,1.7,3.5,2.8c0.6,0.8,1.2,1.6,1.6,2.4c1.4,2.6,2.1,5.5,2.1,8.5c0,10-8,16.8-20.2,27.2
			c-1.3,1.1-2.8,2.4-4.3,3.7L31,50.8c-0.7,0.6-1.7,0.6-2.3,0c-2.4-2.1-4.8-4.1-6.8-5.9C9.6,34.5,1.6,27.7,1.6,17.7
			c0-9.3,6.4-16.2,15-16.2c3,0,6,1,8.3,2.9c0.9,0.7,1.7,1.5,2.5,2.3l2.4,2.9l2.8-3.3c0.6-0.7,1.3-1.4,2.1-1.9C37,2.4,40,1.4,43,1.4
			c0.3,0,0.6,0,0.9,0c1.8,0.1,3.6,0.7,5.2,1.6L50.7,3.9z"/>
	</defs>
	<clipPath id="SVGID_2_">
		<use xlink:href="#SVGID_1_"  style="overflow:visible;"/>
	</clipPath>
	<rect x="-4.6" y="-8.3" class="st1" width="93.2" height="31.1"/>
	<rect x="-4.6" y="22.8" class="st2" width="93.2" height="31.1"/>
	<rect x="-4.6" y="12.4" class="st3" width="93.2" height="20.7"/>
</g>
<path id="Polygon_7" class="st4" d="M32.9,51.4c-1.6,1.6-4.1,1.6-5.7,0c0,0,0,0,0,0l-5.3-5.3c-1.6-1.6-1.6-4.1,0-5.7
	c0.8-0.8,1.8-1.2,2.8-1.2h10.7c2.2,0,4,1.8,4,4c0,1.1-0.4,2.1-1.2,2.8L32.9,51.4z"/>
</svg>
