<?xml version="1.0" encoding="utf-8"?>
<!-- Generator: Adobe Illustrator 24.2.0, SVG Export Plug-In . SVG Version: 6.00 Build 0)  -->
<svg version="1.1" id="Laag_1" xmlns="http://www.w3.org/2000/svg" xmlns:xlink="http://www.w3.org/1999/xlink" x="0px" y="0px"
	 viewBox="0 0 59.6 52.6" style="enable-background:new 0 0 59.6 52.6;" xml:space="preserve">
<style type="text/css">
	.st0{fill:#F9F7F7;}
	.st1{clip-path:url(#SVGID_2_);}
	.st2{fill:#C60B1E;}
	.st3{fill:#FFC400;}
	.st4{fill:#FFFFFF;}
</style>
<path id="Path_15-2" class="st0" d="M50.8,1.9c2.7,1.5,5.1,3.5,6.6,6.3c0,0,0,0,0,0.1c1.5,2.8,2.2,5.9,2.2,9
	c0,10.6-8.5,17.8-21.3,28.8c-1.4,1.2-3,2.5-4.6,3.9L31,52.2c-0.7,0.6-1.7,0.6-2.5,0c-2.6-2.3-5-4.4-7.2-6.2C8.5,35,0,27.7,0,17.2
	C0,7.4,6.8,0,15.8,0c3.2,0,6.3,1.1,8.8,3c0.9,0.7,1.8,1.6,2.6,2.5l2.5,3.1l3-3.5C33.4,4.4,34.2,3.7,35,3c2.5-2,5.6-3.1,8.8-3l0,0
	c2.4,0,4.7,0.6,6.7,1.7C50.6,1.8,50.7,1.8,50.8,1.9z"/>
<g>
	<g>
		<g>
			<defs>
				<path id="SVGID_1_" d="M50.3,3.6c1.3,0.7,2.6,1.7,3.5,2.8C54.4,7.2,55,8,55.4,8.8c1.4,2.6,2.1,5.5,2.1,8.5
					c0,10-8,16.8-20.2,27.2c-1.3,1.1-2.8,2.4-4.3,3.7l-2.4,2.3c-0.7,0.6-1.7,0.6-2.3,0c-2.4-2.1-4.8-4.1-6.8-5.9
					C9.2,34.2,1.2,27.4,1.2,17.4c0-9.3,6.4-16.2,15-16.2c3,0,6,1,8.3,2.9c0.9,0.7,1.7,1.5,2.5,2.3l2.4,2.9L32.2,6
					c0.6-0.7,1.3-1.4,2.1-1.9c2.3-2,5.3-3,8.3-3c0.3,0,0.6,0,0.9,0c1.8,0.1,3.6,0.7,5.2,1.6L50.3,3.6z"/>
			</defs>
			<clipPath id="SVGID_2_">
				<use xlink:href="#SVGID_1_"  style="overflow:visible;"/>
			</clipPath>
			<g transform="translate(-.35388,-.3433)" class="st1">
				<path class="st2" d="M-6,38.6h79.5v12.7H-6V38.6z"/>
				<path class="st3" d="M-6,13.1h79.5v25.5H-6V13.1z"/>
				<path class="st2" d="M-6,0.3h79.5V13H-6V0.3z"/>
			</g>
		</g>
	</g>
</g>
<path id="Polygon_7" class="st4" d="M32.9,51.4c-1.6,1.6-4.1,1.6-5.7,0l0,0l-5.3-5.3c-1.6-1.6-1.6-4.1,0-5.7
	c0.8-0.8,1.8-1.2,2.8-1.2h10.7c2.2,0,4,1.8,4,4c0,1.1-0.4,2.1-1.2,2.8L32.9,51.4z"/>
</svg>
