<svg xmlns="http://www.w3.org/2000/svg" width="185.768" height="95.29" viewBox="0 0 185.768 95.29">
    <g id="Group_8" data-name="Group 8" transform="translate(-32.451 -21.719)">
        <g id="Group_6" data-name="Group 6" transform="translate(33.171 21.719)">
            <g id="Group_4" data-name="Group 4">
                <g id="Group_1" data-name="Group 1" transform="translate(128.853 22.579)">
                    <rect id="Rectangle_1" data-name="Rectangle 1" width="3.739" height="42.581" fill="#fff"/>
                </g>
                <path id="Path_1" data-name="Path 1" d="M135.788,33.663a23.144,23.144,0,0,0-19.422,10.584V35.532h-3.74V78.113h3.74V56.824a19.42,19.42,0,1,1,38.841,0v21.29h3.74V56.824A23.185,23.185,0,0,0,135.788,33.663Z" transform="translate(25.675 -12.953)" fill="#fff"/>
                <path id="Path_2" data-name="Path 2" d="M56.028,33.663A23.148,23.148,0,0,0,36.606,44.247V35.532h-3.74V78.113h3.74V56.824A19.445,19.445,0,0,1,56.028,37.4a19.235,19.235,0,0,1,8.278,1.848l1.6-3.381A22.944,22.944,0,0,0,56.028,33.663Z" transform="translate(-32.866 -12.953)" fill="#fff"/>
                <g id="Group_2" data-name="Group 2" transform="translate(79.206)">
                    <path id="Path_3" data-name="Path 3" d="M101.712,88.749A23.19,23.19,0,0,1,78.545,65.59V21.719h3.74V65.59a19.423,19.423,0,1,0,4.853-12.843l-2.806-2.473a23.163,23.163,0,1,1,17.38,38.475Z" transform="translate(-78.545 -21.719)" fill="#fff"/>
                </g>
                <g id="Group_3" data-name="Group 3" transform="translate(30.75 20.714)">
                    <path id="Path_4" data-name="Path 4" d="M73.761,79.988A23.161,23.161,0,1,1,96.921,56.827,23.186,23.186,0,0,1,73.761,79.988Zm0-42.583A19.422,19.422,0,1,0,93.183,56.827,19.442,19.442,0,0,0,73.761,37.405Z" transform="translate(-50.6 -33.665)" fill="#fff"/>
                </g>
            </g>
            <g id="Group_5" data-name="Group 5" transform="translate(37.572 27.665)">
                <path id="Path_5" data-name="Path 5" d="M85.551,47.447,70.667,62.331,59.313,50.974l2.724-2.722,8.63,8.632L83.529,44.024a16.013,16.013,0,1,0,2.022,3.423Z" transform="translate(-54.534 -37.674)" fill="#63b286"/>
                <path id="Path_6" data-name="Path 6" d="M60.014,45.563,57.29,48.286,68.644,59.643,83.528,44.759a16.026,16.026,0,0,0-2.022-3.423L68.644,54.2Z" transform="translate(-52.511 -34.986)" fill="#fff"/>
            </g>
        </g>
        <g id="Group_7" data-name="Group 7" transform="translate(32.451 97.204)">
            <path id="Path_7" data-name="Path 7" d="M46,70.727a6.872,6.872,0,0,0-5.887-3,7.756,7.756,0,0,0,0,15.51A7.032,7.032,0,0,0,46,80.219V83h1.777V67.909H46Zm-5.887-1.28a5.768,5.768,0,0,1,6.013,6.022,6.217,6.217,0,0,1-1.5,4.146,5.826,5.826,0,0,1-4.51,1.876,6.024,6.024,0,0,1,0-12.044Z" transform="translate(-32.451 -63.434)" fill="#63b286"/>
            <path id="Path_8" data-name="Path 8" d="M54.253,74.546l-.527-.09c-1.838-.323-4.125-.727-4.179-2.511a1.867,1.867,0,0,1,.55-1.413,5.2,5.2,0,0,1,3.638-1.15h.114a6.167,6.167,0,0,1,4.5,1.517l.113.1,1.106-1.183-.113-.106A7.9,7.9,0,0,0,53.851,67.7h-.108a6.881,6.881,0,0,0-4.869,1.639,3.578,3.578,0,0,0-1.046,2.648c.033,3.156,3.137,3.674,5.876,4.13,2.33.375,4.742.761,4.685,2.773-.092,2.4-3.145,2.663-4.453,2.663A6.336,6.336,0,0,1,48.653,79.1l-.1-.146-1.309,1.163.075.113c1.236,1.9,3.7,3.033,6.591,3.033,1.436,0,6.121-.309,6.23-4.278C60.288,75.559,56.8,74.974,54.253,74.546Z" transform="translate(-21.594 -63.459)" fill="#63b286"/>
            <path id="Path_9" data-name="Path 9" d="M67.228,74.546l-.527-.09c-1.838-.323-4.125-.727-4.179-2.511a1.88,1.88,0,0,1,.55-1.413,5.2,5.2,0,0,1,3.638-1.15h.114a6.166,6.166,0,0,1,4.5,1.517l.114.1,1.106-1.183-.113-.106A7.9,7.9,0,0,0,66.826,67.7h-.108a6.878,6.878,0,0,0-4.869,1.639A3.571,3.571,0,0,0,60.8,71.981c.031,3.156,3.135,3.674,5.873,4.13,2.334.375,4.746.761,4.689,2.773-.094,2.4-3.145,2.663-4.453,2.663A6.339,6.339,0,0,1,61.626,79.1l-.1-.146-1.311,1.163.075.113c1.238,1.9,3.7,3.033,6.593,3.033,1.434,0,6.121-.309,6.228-4.278C73.261,75.559,69.774,74.974,67.228,74.546Z" transform="translate(-12.072 -63.459)" fill="#63b286"/>
            <rect id="Rectangle_2" data-name="Rectangle 2" width="1.778" height="15.151" transform="translate(71.556 4.415)" fill="#63b286"/>
            <path id="Path_10" data-name="Path 10" d="M87.825,74.546l-.525-.09c-1.838-.323-4.127-.727-4.179-2.511a1.872,1.872,0,0,1,.548-1.413,5.2,5.2,0,0,1,3.64-1.15h.114a6.172,6.172,0,0,1,4.5,1.517l.111.1,1.108-1.183-.114-.106A7.891,7.891,0,0,0,87.422,67.7h-.107a6.884,6.884,0,0,0-4.869,1.639A3.585,3.585,0,0,0,81.4,71.981c.033,3.156,3.137,3.674,5.876,4.13,2.332.375,4.742.761,4.687,2.773-.094,2.4-3.145,2.663-4.453,2.663A6.337,6.337,0,0,1,82.224,79.1l-.1-.146-1.307,1.163.073.113c1.236,1.9,3.7,3.033,6.593,3.033,1.434,0,6.119-.309,6.228-4.278C93.859,75.559,90.37,74.974,87.825,74.546Z" transform="translate(3.047 -63.459)" fill="#63b286"/>
            <path id="Path_11" data-name="Path 11" d="M103.29,82.786a5.28,5.28,0,0,1-2.207.584c-2.138,0-2.568-1.247-2.568-3.255v-8.85h5.027V69.727H98.515V65.252l-1.748.182v4.293h-3.14v1.538h3.14v8.85c0,3.35,1.372,4.912,4.316,4.912a6.578,6.578,0,0,0,2.849-.765l.134-.064-.629-1.484Z" transform="translate(12.45 -65.252)" fill="#63b286"/>
            <path id="Path_12" data-name="Path 12" d="M118.567,70.727a6.873,6.873,0,0,0-5.889-3,7.756,7.756,0,0,0,0,15.51,7.032,7.032,0,0,0,5.889-3.021V83h1.777V67.909h-1.777Zm-5.889-1.28a5.769,5.769,0,0,1,6.015,6.022,6.217,6.217,0,0,1-1.5,4.146,5.83,5.83,0,0,1-4.512,1.876,6.024,6.024,0,0,1,0-12.044Z" transform="translate(20.808 -63.434)" fill="#63b286"/>
            <path id="Path_13" data-name="Path 13" d="M127.187,67.677a6.14,6.14,0,0,0-5.107,2.514V67.947h-1.746V83.038h1.776V74.654a4.994,4.994,0,0,1,5.022-5.23h.076c3.2,0,5.032,1.81,5.032,4.961v8.652h1.777V74.354C134.017,70.3,131.336,67.677,127.187,67.677Z" transform="translate(32.052 -63.472)" fill="#63b286"/>
            <path id="Path_14" data-name="Path 14" d="M143.375,82.715l-.147.071a5.273,5.273,0,0,1-2.206.584c-2.138,0-2.568-1.247-2.568-3.255v-8.85h5.027V69.727h-5.027V65.252l-1.748.182v4.293h-3.14v1.538h3.14v8.85c0,3.35,1.372,4.912,4.316,4.912a6.6,6.6,0,0,0,2.851-.765L144,84.2Z" transform="translate(41.764 -65.252)" fill="#63b286"/>
        </g>
    </g>
</svg>
