<svg xmlns="http://www.w3.org/2000/svg" width="49.494" height="44.28" viewBox="0 0 49.494 44.28">
    <g id="SEGMENT" transform="translate(2.5 2.5)">
        <path id="Path_15" data-name="Path 15" d="M40.012,32.623A11.963,11.963,0,0,1,42.85,36.1a13.994,13.994,0,0,1,1.644,6.716c0,7.9-6.339,13.3-15.934,21.474-1.064.907-2.22,1.892-3.429,2.934l-1.969,1.709a1.391,1.391,0,0,1-1.831,0c-1.92-1.679-3.767-3.253-5.4-4.642C6.339,56.117,0,50.715,0,42.819,0,35.511,5.081,30,11.819,30A10.534,10.534,0,0,1,18.4,32.274a13.291,13.291,0,0,1,1.937,1.852l1.857,2.313,2.246-2.628A13.088,13.088,0,0,1,26.1,32.274,10.534,10.534,0,0,1,32.675,30a11.681,11.681,0,0,1,3.456.514" transform="translate(0 -30)" fill="none" stroke="#6cbd98" stroke-linecap="round" stroke-miterlimit="10" stroke-width="5" stroke-dasharray="130 1000"/>
    </g>
</svg>
