<?xml version="1.0" encoding="utf-8"?>
<!-- Generator: Adobe Illustrator 24.1.2, SVG Export Plug-In . SVG Version: 6.00 Build 0)  -->
<svg version="1.1" id="a1f4f3cf-1cad-4c00-8110-5d7984d6ecec"
	 xmlns="http://www.w3.org/2000/svg" xmlns:xlink="http://www.w3.org/1999/xlink" x="0px" y="0px" viewBox="0 0 2180.24 993.4"
	 style="enable-background:new 0 0 2180.24 993.4;" xml:space="preserve">
<style type="text/css">
	.st0{fill:#FF0000;}
	.st1{enable-background:new    ;}
</style>
<path class="st0" d="M1047.77,476.95c-16.2-56.19-50.84-105.3-98.36-139.39c-45.5-32.66-100.09-50.25-156.1-50.3
	c-16.55,0.06-33.05,1.68-49.29,4.86c-3.14,0.94-6.29,1.9-9.45,2.96c-3.06,1.04-6.13,2.2-9.2,3.35l-1.58,0.58
	c-11.58,4.41-22.94,9.41-34.01,14.98c-38.56,19.36-76.13,45.77-109.14,72.78c-2.81,2.29-5.53,4.59-8.27,6.89
	c-4.59,3.84-9.08,7.68-13.47,11.51c-2.03,2.69-4.08,5.37-6.03,8.06c-1.5,1.58-3.07,3.22-4.37,4.6c-9.43,10.11-19.07,19.89-29,29.21
	c-17.2,16.03-33.42,33.06-48.6,51.01l-27.35,32.54c-42.65,50.77-95.47,92.08-155.59,118.52c-44.92,19.76-81.11,27.55-109.65,27.53
	c-31.58-0.11-53.9-9.02-71.83-23.12c-13.4-10.64-24.29-24.62-33.05-40.86c-13.16-24.32-21.26-53.58-25.8-81.42
	c-2.74-17.09-4.47-34.32-5.15-51.61c15.43,13.63,31.64,26.35,48.54,38.1c50.17,34.75,120.25,70.2,202.62,73.84
	c5.3-3.22,10.79-6.61,16.6-10.38c17.56-11.39,34.52-23.7,50.79-36.86c-17.72,3.74-35.77,5.63-53.88,5.67
	c-75.92,0.09-143.54-32.9-192.23-66.73c-20.18-14.01-39.27-29.53-57.1-46.42c-6.65-6.31-11.75-11.54-15.13-15.14
	c-1.7-1.8-2.97-3.19-3.79-4.1l-0.89-1l-0.19-0.22l-0.01-0.01l-32.57-37.9l-4.23,49.79c-0.04,0.47-1.01,12-1.01,30.24
	C0.1,494.44,3.47,556.24,26.73,612c11.69,27.83,28.64,54.43,53.69,74.35c24.97,19.97,58.04,32.34,97.91,32.22
	c36.15-0.02,77.8-9.67,126.53-31.08c66.59-29.29,124.42-74.71,170.82-129.92l9.13-10.87c-11.3,36.68-17.05,74.85-17.08,113.23
	c0.01,69.81,18.84,128.76,37.59,170.34c18.77,41.6,37.53,65.99,38.26,66.94l42.74,55.32l-5.24-69.71
	c-1.62-21.59-2.42-42.03-2.4-61.34c0-72.9,11-129.99,28.91-174.5c26.98-66.7,68.82-105.84,116.73-129.84
	c47.88-23.87,102.41-31.7,151.87-31.66c34.85,0.16,69.6,3.62,103.79,10.33c13.27,2.58,23.99,5.16,31.31,7.07
	c3.66,0.96,6.47,1.74,8.33,2.28l2.06,0.61l0.46,0.14l0.08,0.03l37.31,11.76l-11.76-40.7L1047.77,476.95z M876.19,443.54
	c-35.83,0.01-74.75,3.69-113.38,14.35C704.99,473.78,647.44,506,605.23,564.41c-39.36,54.37-64.55,130.62-67.82,234.14
	c-14.7-36.33-27.76-84.01-27.74-138.62c0.03-51.23,11.32-108.56,43.86-169.51c9.36-17.34,19.84-34.04,31.38-50.02
	c24.2-25.13,50.5-48.14,78.62-68.77c37.64-27.61,83.12-42.47,129.79-42.43c47.22,0.05,93.25,14.88,131.62,42.41
	c30.21,21.7,54.36,50.78,70.14,84.47C955.96,447.92,916.14,443.72,876.19,443.54z"/>
<path class="st0" d="M1211.62,221.31c-23.9-33.48-41.65-70.95-52.4-110.65L1129.27,0L716.49,256.94
	c28.64-10.17,58.15-16.39,87.9-16.42c5.54,0,11.09,0.31,16.63,0.76l282.51-175.85l15.21,56.19c12.05,44.52,31.95,86.53,58.75,124.07
	l29.5,41.33c-24.41,4.8-49.22,7.26-74.1,7.35c-32.43,0.02-68.1-4.63-100.57-18.33c-32.54-13.78-61.97-36.03-84.35-73.22
	l-35.96,21.57c23.97,40.59,60.48,72.28,104.04,90.31c39.44,16.57,80.53,21.59,116.84,21.61c64.36-0.05,114.29-15.81,115.52-16.16
	l27.58-8.66L1211.62,221.31z"/>
<g class="st1">
	<path d="M822.37,881.78h-56.74V609.79h155.9v47.25h-99.16v70.13h92.27v47.07h-92.27V881.78z"/>
	<path d="M1221.6,745.41c0,45.02-11.16,79.62-33.49,103.81c-22.32,24.19-54.32,36.28-95.99,36.28c-41.67,0-73.67-12.09-95.99-36.28
		c-22.32-24.18-33.49-58.91-33.49-104.18c0-45.27,11.19-79.84,33.58-103.71c22.39-23.87,54.48-35.81,96.27-35.81
		c41.79,0,73.76,12.03,95.9,36.09C1210.53,665.67,1221.6,700.27,1221.6,745.41z M1023.1,745.41c0,30.39,5.77,53.27,17.3,68.65
		c11.53,15.38,28.77,23.07,51.72,23.07c46.01,0,69.02-30.57,69.02-91.71c0-61.27-22.88-91.9-68.65-91.9
		c-22.95,0-40.25,7.72-51.9,23.16C1028.93,692.11,1023.1,715.03,1023.1,745.41z"/>
	<path d="M1497.86,881.78H1432l-63.25-102.88l-63.25,102.88h-61.76l90.23-140.27l-84.46-131.71h63.62l58.6,97.85l57.48-97.85h62.14
		l-85.39,134.88L1497.86,881.78z"/>
	<path d="M1532.09,881.78V609.79h57.67v271.98H1532.09z"/>
	<path d="M1877,881.78h-65.48l-71.25-114.6l-24.37,17.49v97.11h-57.67V609.79h57.67v124.46l22.7-32l73.67-92.46h64l-94.88,120.36
		L1877,881.78z"/>
	<path d="M2158.1,745.41c0,45.02-11.16,79.62-33.49,103.81c-22.32,24.19-54.32,36.28-95.99,36.28s-73.67-12.09-95.99-36.28
		c-22.32-24.18-33.49-58.91-33.49-104.18c0-45.27,11.19-79.84,33.58-103.71c22.38-23.87,54.48-35.81,96.27-35.81
		c41.79,0,73.76,12.03,95.9,36.09C2147.03,665.67,2158.1,700.27,2158.1,745.41z M1959.6,745.41c0,30.39,5.77,53.27,17.3,68.65
		c11.54,15.38,28.77,23.07,51.72,23.07c46.01,0,69.02-30.57,69.02-91.71c0-61.27-22.88-91.9-68.65-91.9
		c-22.95,0-40.25,7.72-51.9,23.16C1965.43,692.11,1959.6,715.03,1959.6,745.41z"/>
</g>
</svg>
