<svg xmlns="http://www.w3.org/2000/svg" width="107.135" height="54.955" viewBox="0 0 107.135 54.955">
    <g id="Group_186" data-name="Group 186" transform="translate(-32.451 -21.719)">
        <g id="Group_9" data-name="Group 9" transform="translate(32.866 21.719)">
            <g id="Group_7" data-name="Group 7">
                <g id="Group_4" data-name="Group 4" transform="translate(74.311 13.022)">
                    <rect id="Rectangle_1" data-name="Rectangle 1" width="2.156" height="24.557" fill="#fff"/>
                </g>
                <path id="Path_8" data-name="Path 8" d="M125.984,33.663a13.347,13.347,0,0,0-11.2,6.1V34.741h-2.157V59.3h2.157V47.02a11.2,11.2,0,1,1,22.4,0V59.3h2.157V47.02A13.371,13.371,0,0,0,125.984,33.663Z" transform="translate(-32.866 -21.719)" fill="#fff"/>
                <path id="Path_9" data-name="Path 9" d="M46.224,33.663a13.35,13.35,0,0,0-11.2,6.1V34.741H32.866V59.3h2.157V47.02a11.214,11.214,0,0,1,11.2-11.2A11.093,11.093,0,0,1,51,36.885l.92-1.95A13.232,13.232,0,0,0,46.224,33.663Z" transform="translate(-32.866 -21.719)" fill="#fff"/>
                <g id="Group_5" data-name="Group 5" transform="translate(45.679)">
                    <path id="Path_10" data-name="Path 10" d="M91.906,60.376A13.374,13.374,0,0,1,78.545,47.02v-25.3H80.7v25.3a11.2,11.2,0,1,0,2.8-7.407l-1.618-1.426A13.358,13.358,0,1,1,91.906,60.376Z" transform="translate(-78.545 -21.719)" fill="#fff"/>
                </g>
                <g id="Group_6" data-name="Group 6" transform="translate(17.734 11.946)">
                    <path id="Path_11" data-name="Path 11" d="M63.957,60.38A13.357,13.357,0,1,1,77.314,47.023,13.372,13.372,0,0,1,63.957,60.38Zm0-24.558a11.2,11.2,0,1,0,11.2,11.2A11.213,11.213,0,0,0,63.957,35.822Z" transform="translate(-50.6 -33.665)" fill="#fff"/>
                </g>
            </g>
            <g id="Group_8" data-name="Group 8" transform="translate(21.668 15.955)">
                <path id="Path_12" data-name="Path 12" d="M72.422,43.31l-8.584,8.584-6.548-6.55,1.571-1.57,4.977,4.978,7.418-7.416a9.235,9.235,0,1,0,1.166,1.974Z" transform="translate(-54.534 -37.674)" fill="#63b286"/>
                <path id="Path_13" data-name="Path 13" d="M58.861,43.774l-1.571,1.57,6.548,6.55,8.584-8.584a9.243,9.243,0,0,0-1.166-1.974l-7.418,7.416Z" transform="translate(-54.534 -37.674)" fill="#fff"/>
            </g>
        </g>
        <g id="Group_10" data-name="Group 10" transform="translate(32.451 65.252)">
            <path id="Path_14" data-name="Path 14" d="M40.267,69.458a3.963,3.963,0,0,0-3.395-1.729,4.473,4.473,0,0,0,0,8.945,4.055,4.055,0,0,0,3.395-1.742v1.6h1.025v-8.7H40.267Zm-3.395-.738a3.327,3.327,0,0,1,3.468,3.473,3.585,3.585,0,0,1-.867,2.391,3.36,3.36,0,0,1-2.6,1.082,3.474,3.474,0,0,1,0-6.946Z" transform="translate(-32.451 -65.252)" fill="#fff"/>
            <path id="Path_15" data-name="Path 15" d="M51.286,71.646l-.3-.052c-1.06-.186-2.379-.419-2.41-1.448a1.077,1.077,0,0,1,.317-.815,3,3,0,0,1,2.1-.663h.066a3.557,3.557,0,0,1,2.6.875l.065.058.638-.682-.065-.061a4.554,4.554,0,0,0-3.235-1.163h-.062a3.968,3.968,0,0,0-2.808.945,2.063,2.063,0,0,0-.6,1.527c.019,1.82,1.809,2.119,3.389,2.382,1.344.216,2.735.439,2.7,1.6-.053,1.386-1.814,1.536-2.568,1.536a3.654,3.654,0,0,1-3.048-1.411L48,74.189l-.755.671.043.065a4.429,4.429,0,0,0,3.8,1.749c.828,0,3.53-.178,3.593-2.467C54.766,72.23,52.754,71.893,51.286,71.646Z" transform="translate(-32.451 -65.252)" fill="#fff"/>
            <path id="Path_16" data-name="Path 16" d="M64.26,71.646l-.3-.052c-1.06-.186-2.379-.419-2.41-1.448a1.084,1.084,0,0,1,.317-.815,3,3,0,0,1,2.1-.663h.066a3.556,3.556,0,0,1,2.6.875l.066.058.638-.682-.065-.061a4.554,4.554,0,0,0-3.235-1.163h-.062a3.966,3.966,0,0,0-2.808.945,2.06,2.06,0,0,0-.6,1.527c.018,1.82,1.808,2.119,3.387,2.382,1.346.216,2.737.439,2.7,1.6-.054,1.386-1.814,1.536-2.568,1.536a3.656,3.656,0,0,1-3.049-1.411l-.057-.084-.756.671.043.065a4.432,4.432,0,0,0,3.8,1.749c.827,0,3.53-.178,3.592-2.467C67.739,72.23,65.728,71.893,64.26,71.646Z" transform="translate(-32.451 -65.252)" fill="#fff"/>
            <rect id="Rectangle_2" data-name="Rectangle 2" width="1.025" height="8.738" transform="translate(41.267 2.546)" fill="#fff"/>
            <path id="Path_17" data-name="Path 17" d="M84.858,71.646l-.3-.052c-1.06-.186-2.38-.419-2.41-1.448a1.08,1.08,0,0,1,.316-.815,3,3,0,0,1,2.1-.663h.066a3.56,3.56,0,0,1,2.6.875l.064.058.639-.682-.066-.061a4.551,4.551,0,0,0-3.235-1.163h-.062a3.97,3.97,0,0,0-2.808.945,2.067,2.067,0,0,0-.6,1.527c.019,1.82,1.809,2.119,3.389,2.382,1.345.216,2.735.439,2.7,1.6-.054,1.386-1.814,1.536-2.568,1.536a3.655,3.655,0,0,1-3.049-1.411l-.058-.084-.754.671.042.065a4.431,4.431,0,0,0,3.8,1.749c.827,0,3.529-.178,3.592-2.467C88.338,72.23,86.326,71.893,84.858,71.646Z" transform="translate(-32.451 -65.252)" fill="#fff"/>
            <path id="Path_18" data-name="Path 18" d="M99.2,75.364a3.045,3.045,0,0,1-1.273.337c-1.233,0-1.481-.719-1.481-1.877v-5.1h2.9v-.887h-2.9V65.252l-1.008.105v2.476H93.627v.887h1.811v5.1c0,1.932.791,2.833,2.489,2.833a3.794,3.794,0,0,0,1.643-.441l.077-.037-.363-.856Z" transform="translate(-32.451 -65.252)" fill="#fff"/>
            <path id="Path_19" data-name="Path 19" d="M112.83,69.458a3.964,3.964,0,0,0-3.4-1.729,4.473,4.473,0,0,0,0,8.945,4.056,4.056,0,0,0,3.4-1.742v1.6h1.025v-8.7H112.83Zm-3.4-.738a3.327,3.327,0,0,1,3.469,3.473,3.585,3.585,0,0,1-.867,2.391,3.362,3.362,0,0,1-2.6,1.082,3.474,3.474,0,0,1,0-6.946Z" transform="translate(-32.451 -65.252)" fill="#fff"/>
            <path id="Path_20" data-name="Path 20" d="M124.286,67.677a3.541,3.541,0,0,0-2.945,1.45V67.833h-1.007v8.7h1.024V71.7a2.88,2.88,0,0,1,2.9-3.016h.044a2.624,2.624,0,0,1,2.9,2.861v4.99h1.025V71.528A3.651,3.651,0,0,0,124.286,67.677Z" transform="translate(-32.451 -65.252)" fill="#fff"/>
            <path id="Path_21" data-name="Path 21" d="M139.223,75.323l-.085.041a3.041,3.041,0,0,1-1.272.337c-1.233,0-1.481-.719-1.481-1.877v-5.1h2.9v-.887h-2.9V65.252l-1.008.105v2.476h-1.811v.887h1.811v5.1c0,1.932.791,2.833,2.489,2.833a3.808,3.808,0,0,0,1.644-.441l.076-.037Z" transform="translate(-32.451 -65.252)" fill="#fff"/>
        </g>
    </g>
</svg>
