<svg xmlns="http://www.w3.org/2000/svg" width="315" height="161.58" viewBox="0 0 315 161.58">
    <g id="Group_26" data-name="Group 26" transform="translate(-32.451 -21.719)">
        <g id="Group_6" data-name="Group 6" transform="translate(33.671 21.719)">
            <g id="Group_4" data-name="Group 4">
                <g id="Group_1" data-name="Group 1" transform="translate(218.491 38.287)">
                    <rect id="Rectangle_1" data-name="Rectangle 1" width="6.34" height="72.203"/>
                </g>
                <path id="Path_1" data-name="Path 1" d="M151.9,33.663A39.244,39.244,0,0,0,118.968,51.61V36.833h-6.342v72.2h6.342v-36.1a32.93,32.93,0,1,1,65.861,0v36.1h6.342v-36.1A39.315,39.315,0,0,0,151.9,33.663Z" transform="translate(121.886 1.455)"/>
                <path id="Path_2" data-name="Path 2" d="M72.141,33.663A39.252,39.252,0,0,0,39.208,51.61V36.833H32.866v72.2h6.342v-36.1A32.972,32.972,0,0,1,72.141,40a32.617,32.617,0,0,1,14.037,3.134l2.7-5.733A38.905,38.905,0,0,0,72.141,33.663Z" transform="translate(-32.866 1.455)"/>
                <g id="Group_2" data-name="Group 2" transform="translate(134.306)">
                    <path id="Path_3" data-name="Path 3" d="M117.829,135.379a39.323,39.323,0,0,1-39.284-39.27V21.719h6.342v74.39a32.935,32.935,0,1,0,8.23-21.778l-4.757-4.193a39.277,39.277,0,1,1,29.47,65.24Z" transform="translate(-78.545 -21.719)"/>
                </g>
                <g id="Group_3" data-name="Group 3" transform="translate(52.142 35.124)">
                    <path id="Path_4" data-name="Path 4" d="M89.872,112.213A39.274,39.274,0,1,1,129.145,72.94,39.315,39.315,0,0,1,89.872,112.213Zm0-72.206A32.933,32.933,0,1,0,122.806,72.94,32.967,32.967,0,0,0,89.872,40.007Z" transform="translate(-50.6 -33.665)"/>
                </g>
            </g>
            <g id="Group_5" data-name="Group 5" transform="translate(63.709 46.911)">
                <path id="Path_5" data-name="Path 5" d="M107.129,54.245,81.89,79.484,62.637,60.225l4.619-4.616L81.89,70.246l21.811-21.8a27.153,27.153,0,1,0,3.428,5.8Z" transform="translate(-54.534 -37.674)" fill="#63b286"/>
                <path id="Path_6" data-name="Path 6" d="M61.909,48.5,57.29,53.12,76.543,72.379,101.781,47.14a27.174,27.174,0,0,0-3.428-5.8l-21.811,21.8Z" transform="translate(-49.187 -30.569)" fill="#fff"/>
            </g>
        </g>
        <g id="Group_7" data-name="Group 7" transform="translate(32.451 149.715)">
            <path id="Path_7" data-name="Path 7" d="M55.432,72.813a11.652,11.652,0,0,0-9.982-5.084,13.151,13.151,0,0,0,0,26.3,11.923,11.923,0,0,0,9.982-5.122v4.716h3.014V68.035H55.432Zm-9.982-2.17c7,0,10.2,5.292,10.2,10.211a10.542,10.542,0,0,1-2.549,7.03,9.879,9.879,0,0,1-7.647,3.181c-5.786,0-9.982-4.3-9.982-10.238C35.468,74.927,39.663,70.643,45.45,70.643Z" transform="translate(-32.451 -60.446)" fill="#63b286"/>
            <path id="Path_8" data-name="Path 8" d="M59.13,79.312l-.894-.153c-3.117-.547-6.995-1.232-7.086-4.257a3.166,3.166,0,0,1,.932-2.4c1.182-1.22,3.487-1.949,6.169-1.949h.194a10.458,10.458,0,0,1,7.639,2.573l.191.171,1.876-2.005-.191-.179A13.391,13.391,0,0,0,58.448,67.7h-.182c-3.5,0-6.507,1.014-8.256,2.778a6.067,6.067,0,0,0-1.773,4.49c.056,5.351,5.319,6.23,9.964,7,3.952.635,8.042,1.291,7.944,4.7-.156,4.075-5.334,4.516-7.55,4.516a10.744,10.744,0,0,1-8.962-4.149l-.171-.247-2.22,1.973.126.191c2.1,3.219,6.274,5.142,11.176,5.142,2.434,0,10.379-.523,10.564-7.254C69.362,81.029,63.447,80.038,59.13,79.312Z" transform="translate(-3.751 -60.512)" fill="#63b286"/>
            <path id="Path_9" data-name="Path 9" d="M72.106,79.312l-.894-.153c-3.117-.547-6.995-1.232-7.086-4.257a3.188,3.188,0,0,1,.932-2.4c1.182-1.22,3.487-1.949,6.169-1.949h.194a10.455,10.455,0,0,1,7.636,2.573l.194.171,1.876-2.005-.191-.179A13.391,13.391,0,0,0,71.424,67.7h-.182c-3.5,0-6.51,1.014-8.256,2.778a6.055,6.055,0,0,0-1.773,4.49c.053,5.351,5.316,6.23,9.958,7,3.958.635,8.047,1.291,7.95,4.7-.159,4.075-5.334,4.516-7.55,4.516a10.75,10.75,0,0,1-8.965-4.149l-.168-.247-2.223,1.973.126.191c2.1,3.219,6.277,5.142,11.179,5.142,2.432,0,10.379-.523,10.561-7.254C82.335,81.029,76.422,80.038,72.106,79.312Z" transform="translate(21.419 -60.512)" fill="#63b286"/>
            <rect id="Rectangle_2" data-name="Rectangle 2" width="3.015" height="25.691" transform="translate(121.334 7.487)" fill="#63b286"/>
            <path id="Path_10" data-name="Path 10" d="M92.7,79.312l-.891-.153c-3.117-.547-7-1.232-7.086-4.257a3.174,3.174,0,0,1,.929-2.4c1.182-1.22,3.487-1.949,6.172-1.949h.194a10.466,10.466,0,0,1,7.639,2.573l.188.171,1.879-2.005-.194-.179A13.381,13.381,0,0,0,92.018,67.7h-.182c-3.5,0-6.507,1.014-8.256,2.778a6.078,6.078,0,0,0-1.773,4.49c.056,5.351,5.319,6.23,9.964,7,3.955.635,8.041,1.291,7.947,4.7-.159,4.075-5.334,4.516-7.55,4.516A10.746,10.746,0,0,1,83.2,87.036l-.171-.247-2.217,1.973.123.191c2.1,3.219,6.277,5.142,11.179,5.142,2.432,0,10.376-.523,10.561-7.254C102.932,81.029,97.017,80.038,92.7,79.312Z" transform="translate(61.388 -60.512)" fill="#63b286"/>
            <path id="Path_11" data-name="Path 11" d="M110.013,94.983a8.953,8.953,0,0,1-3.743.991c-3.625,0-4.354-2.114-4.354-5.519V75.449h8.524V72.841h-8.524V65.252l-2.964.309v7.28H93.627v2.608h5.325V90.456c0,5.68,2.326,8.33,7.318,8.33a11.154,11.154,0,0,0,4.831-1.3l.226-.109-1.067-2.517Z" transform="translate(86.244 -65.252)" fill="#63b286"/>
            <path id="Path_12" data-name="Path 12" d="M127.995,72.813a11.654,11.654,0,0,0-9.985-5.084,13.151,13.151,0,0,0,0,26.3,11.925,11.925,0,0,0,9.985-5.122v4.716h3.014V68.035h-3.014Zm-9.985-2.17c7.007,0,10.2,5.292,10.2,10.211a10.542,10.542,0,0,1-2.549,7.03,9.886,9.886,0,0,1-7.65,3.181c-5.783,0-9.982-4.3-9.982-10.238C108.028,74.927,112.226,70.643,118.01,70.643Z" transform="translate(108.337 -60.446)" fill="#63b286"/>
            <path id="Path_13" data-name="Path 13" d="M131.954,67.677a10.411,10.411,0,0,0-8.659,4.263v-3.8h-2.961V93.724h3.011V79.508c0-5.089,3.581-8.818,8.515-8.868h.129c5.422,0,8.533,3.07,8.533,8.412V93.724h3.014V79C143.535,72.123,138.99,67.677,131.954,67.677Z" transform="translate(138.061 -60.547)" fill="#63b286"/>
            <path id="Path_14" data-name="Path 14" d="M150.2,94.863l-.25.121a8.941,8.941,0,0,1-3.74.991c-3.625,0-4.354-2.114-4.354-5.519V75.449h8.524V72.841h-8.524V65.252l-2.964.309v7.28h-5.325v2.608h5.325V90.456c0,5.68,2.326,8.33,7.318,8.33a11.2,11.2,0,0,0,4.834-1.3l.223-.109Z" transform="translate(163.734 -65.252)" fill="#63b286"/>
        </g>
    </g>
</svg>
